<svg width="180" height="48" viewBox="0 0 180 48" fill="none" xmlns="http://www.w3.org/2000/svg">
<path d="M0.5 12C0.5 5.37258 5.87258 0 12.5 0H167.5C174.127 0 179.5 5.37258 179.5 12V36C179.5 42.6274 174.127 48 167.5 48H12.5C5.87259 48 0.5 42.6274 0.5 36V12Z" fill="#F5F5F5"/>
<path d="M29.355 18.97V29.5H26.79V23.185L24.435 29.5H22.365L19.995 23.17V29.5H17.43V18.97H20.46L23.415 26.26L26.34 18.97H29.355ZM35.0095 29.62C34.1895 29.62 33.4495 29.445 32.7895 29.095C32.1395 28.745 31.6245 28.245 31.2445 27.595C30.8745 26.945 30.6895 26.185 30.6895 25.315C30.6895 24.455 30.8795 23.7 31.2595 23.05C31.6395 22.39 32.1595 21.885 32.8195 21.535C33.4795 21.185 34.2195 21.01 35.0395 21.01C35.8595 21.01 36.5995 21.185 37.2595 21.535C37.9195 21.885 38.4395 22.39 38.8195 23.05C39.1995 23.7 39.3895 24.455 39.3895 25.315C39.3895 26.175 39.1945 26.935 38.8045 27.595C38.4245 28.245 37.8995 28.745 37.2295 29.095C36.5695 29.445 35.8295 29.62 35.0095 29.62ZM35.0095 27.4C35.4995 27.4 35.9145 27.22 36.2545 26.86C36.6045 26.5 36.7795 25.985 36.7795 25.315C36.7795 24.645 36.6095 24.13 36.2695 23.77C35.9395 23.41 35.5295 23.23 35.0395 23.23C34.5395 23.23 34.1245 23.41 33.7945 23.77C33.4645 24.12 33.2995 24.635 33.2995 25.315C33.2995 25.985 33.4595 26.5 33.7795 26.86C34.1095 27.22 34.5195 27.4 35.0095 27.4ZM43.3153 22.525C43.6153 22.065 43.9903 21.705 44.4403 21.445C44.8903 21.175 45.3903 21.04 45.9403 21.04V23.755H45.2353C44.5953 23.755 44.1153 23.895 43.7953 24.175C43.4753 24.445 43.3153 24.925 43.3153 25.615V29.5H40.7503V21.13H43.3153V22.525ZM55.0563 25.18C55.0563 25.42 55.0413 25.67 55.0113 25.93H49.2063C49.2463 26.45 49.4113 26.85 49.7013 27.13C50.0013 27.4 50.3663 27.535 50.7963 27.535C51.4363 27.535 51.8813 27.265 52.1313 26.725H54.8613C54.7213 27.275 54.4663 27.77 54.0963 28.21C53.7363 28.65 53.2813 28.995 52.7313 29.245C52.1813 29.495 51.5663 29.62 50.8863 29.62C50.0663 29.62 49.3363 29.445 48.6963 29.095C48.0563 28.745 47.5563 28.245 47.1963 27.595C46.8363 26.945 46.6563 26.185 46.6563 25.315C46.6563 24.445 46.8313 23.685 47.1813 23.035C47.5413 22.385 48.0413 21.885 48.6813 21.535C49.3213 21.185 50.0563 21.01 50.8863 21.01C51.6963 21.01 52.4163 21.18 53.0463 21.52C53.6763 21.86 54.1663 22.345 54.5163 22.975C54.8763 23.605 55.0563 24.34 55.0563 25.18ZM52.4313 24.505C52.4313 24.065 52.2813 23.715 51.9813 23.455C51.6813 23.195 51.3063 23.065 50.8563 23.065C50.4263 23.065 50.0613 23.19 49.7613 23.44C49.4713 23.69 49.2913 24.045 49.2213 24.505H52.4313ZM59.0782 25.315C59.0782 24.445 59.2532 23.685 59.6032 23.035C59.9632 22.385 60.4582 21.885 61.0882 21.535C61.7282 21.185 62.4582 21.01 63.2782 21.01C64.3282 21.01 65.2032 21.285 65.9032 21.835C66.6132 22.385 67.0782 23.16 67.2982 24.16H64.5682C64.3382 23.52 63.8932 23.2 63.2332 23.2C62.7632 23.2 62.3882 23.385 62.1082 23.755C61.8282 24.115 61.6882 24.635 61.6882 25.315C61.6882 25.995 61.8282 26.52 62.1082 26.89C62.3882 27.25 62.7632 27.43 63.2332 27.43C63.8932 27.43 64.3382 27.11 64.5682 26.47H67.2982C67.0782 27.45 66.6132 28.22 65.9032 28.78C65.1932 29.34 64.3182 29.62 63.2782 29.62C62.4582 29.62 61.7282 29.445 61.0882 29.095C60.4582 28.745 59.9632 28.245 59.6032 27.595C59.2532 26.945 59.0782 26.185 59.0782 25.315ZM68.1602 25.3C68.1602 24.44 68.3202 23.685 68.6402 23.035C68.9702 22.385 69.4152 21.885 69.9752 21.535C70.5352 21.185 71.1602 21.01 71.8502 21.01C72.4402 21.01 72.9552 21.13 73.3952 21.37C73.8452 21.61 74.1902 21.925 74.4302 22.315V21.13H76.9952V29.5H74.4302V28.315C74.1802 28.705 73.8302 29.02 73.3802 29.26C72.9402 29.5 72.4252 29.62 71.8352 29.62C71.1552 29.62 70.5352 29.445 69.9752 29.095C69.4152 28.735 68.9702 28.23 68.6402 27.58C68.3202 26.92 68.1602 26.16 68.1602 25.3ZM74.4302 25.315C74.4302 24.675 74.2502 24.17 73.8902 23.8C73.5402 23.43 73.1102 23.245 72.6002 23.245C72.0902 23.245 71.6552 23.43 71.2952 23.8C70.9452 24.16 70.7702 24.66 70.7702 25.3C70.7702 25.94 70.9452 26.45 71.2952 26.83C71.6552 27.2 72.0902 27.385 72.6002 27.385C73.1102 27.385 73.5402 27.2 73.8902 26.83C74.2502 26.46 74.4302 25.955 74.4302 25.315ZM83.5159 27.325V29.5H82.2109C81.2809 29.5 80.5559 29.275 80.0359 28.825C79.5159 28.365 79.2559 27.62 79.2559 26.59V23.26H78.2359V21.13H79.2559V19.09H81.8209V21.13H83.5009V23.26H81.8209V26.62C81.8209 26.87 81.8809 27.05 82.0009 27.16C82.1209 27.27 82.3209 27.325 82.6009 27.325H83.5159ZM92.8346 25.18C92.8346 25.42 92.8196 25.67 92.7896 25.93H86.9846C87.0246 26.45 87.1896 26.85 87.4796 27.13C87.7796 27.4 88.1446 27.535 88.5746 27.535C89.2146 27.535 89.6596 27.265 89.9096 26.725H92.6396C92.4996 27.275 92.2446 27.77 91.8746 28.21C91.5146 28.65 91.0596 28.995 90.5096 29.245C89.9596 29.495 89.3446 29.62 88.6646 29.62C87.8446 29.62 87.1146 29.445 86.4746 29.095C85.8346 28.745 85.3346 28.245 84.9746 27.595C84.6146 26.945 84.4346 26.185 84.4346 25.315C84.4346 24.445 84.6096 23.685 84.9596 23.035C85.3196 22.385 85.8196 21.885 86.4596 21.535C87.0996 21.185 87.8346 21.01 88.6646 21.01C89.4746 21.01 90.1946 21.18 90.8246 21.52C91.4546 21.86 91.9446 22.345 92.2946 22.975C92.6546 23.605 92.8346 24.34 92.8346 25.18ZM90.2096 24.505C90.2096 24.065 90.0596 23.715 89.7596 23.455C89.4596 23.195 89.0846 23.065 88.6346 23.065C88.2046 23.065 87.8396 23.19 87.5396 23.44C87.2496 23.69 87.0696 24.045 86.9996 24.505H90.2096ZM97.3678 21.01C97.9578 21.01 98.4728 21.13 98.9128 21.37C99.3628 21.61 99.7078 21.925 99.9478 22.315V21.13H102.513V29.485C102.513 30.255 102.358 30.95 102.048 31.57C101.748 32.2 101.283 32.7 100.653 33.07C100.033 33.44 99.2578 33.625 98.3278 33.625C97.0878 33.625 96.0828 33.33 95.3128 32.74C94.5428 32.16 94.1028 31.37 93.9928 30.37H96.5278C96.6078 30.69 96.7978 30.94 97.0978 31.12C97.3978 31.31 97.7678 31.405 98.2078 31.405C98.7378 31.405 99.1578 31.25 99.4678 30.94C99.7878 30.64 99.9478 30.155 99.9478 29.485V28.3C99.6978 28.69 99.3528 29.01 98.9128 29.26C98.4728 29.5 97.9578 29.62 97.3678 29.62C96.6778 29.62 96.0528 29.445 95.4928 29.095C94.9328 28.735 94.4878 28.23 94.1578 27.58C93.8378 26.92 93.6778 26.16 93.6778 25.3C93.6778 24.44 93.8378 23.685 94.1578 23.035C94.4878 22.385 94.9328 21.885 95.4928 21.535C96.0528 21.185 96.6778 21.01 97.3678 21.01ZM99.9478 25.315C99.9478 24.675 99.7678 24.17 99.4078 23.8C99.0578 23.43 98.6278 23.245 98.1178 23.245C97.6078 23.245 97.1728 23.43 96.8128 23.8C96.4628 24.16 96.2878 24.66 96.2878 25.3C96.2878 25.94 96.4628 26.45 96.8128 26.83C97.1728 27.2 97.6078 27.385 98.1178 27.385C98.6278 27.385 99.0578 27.2 99.4078 26.83C99.7678 26.46 99.9478 25.955 99.9478 25.315ZM108.178 29.62C107.358 29.62 106.618 29.445 105.958 29.095C105.308 28.745 104.793 28.245 104.413 27.595C104.043 26.945 103.858 26.185 103.858 25.315C103.858 24.455 104.048 23.7 104.428 23.05C104.808 22.39 105.328 21.885 105.988 21.535C106.648 21.185 107.388 21.01 108.208 21.01C109.028 21.01 109.768 21.185 110.428 21.535C111.088 21.885 111.608 22.39 111.988 23.05C112.368 23.7 112.558 24.455 112.558 25.315C112.558 26.175 112.363 26.935 111.973 27.595C111.593 28.245 111.068 28.745 110.398 29.095C109.738 29.445 108.998 29.62 108.178 29.62ZM108.178 27.4C108.668 27.4 109.083 27.22 109.423 26.86C109.773 26.5 109.948 25.985 109.948 25.315C109.948 24.645 109.778 24.13 109.438 23.77C109.108 23.41 108.698 23.23 108.208 23.23C107.708 23.23 107.293 23.41 106.963 23.77C106.633 24.12 106.468 24.635 106.468 25.315C106.468 25.985 106.628 26.5 106.948 26.86C107.278 27.22 107.688 27.4 108.178 27.4ZM116.484 22.525C116.784 22.065 117.159 21.705 117.609 21.445C118.059 21.175 118.559 21.04 119.109 21.04V23.755H118.404C117.764 23.755 117.284 23.895 116.964 24.175C116.644 24.445 116.484 24.925 116.484 25.615V29.5H113.919V21.13H116.484V22.525ZM121.625 20.26C121.175 20.26 120.805 20.13 120.515 19.87C120.235 19.6 120.095 19.27 120.095 18.88C120.095 18.48 120.235 18.15 120.515 17.89C120.805 17.62 121.175 17.485 121.625 17.485C122.065 17.485 122.425 17.62 122.705 17.89C122.995 18.15 123.14 18.48 123.14 18.88C123.14 19.27 122.995 19.6 122.705 19.87C122.425 20.13 122.065 20.26 121.625 20.26ZM122.9 21.13V29.5H120.335V21.13H122.9ZM132.649 25.18C132.649 25.42 132.634 25.67 132.604 25.93H126.799C126.839 26.45 127.004 26.85 127.294 27.13C127.594 27.4 127.959 27.535 128.389 27.535C129.029 27.535 129.474 27.265 129.724 26.725H132.454C132.314 27.275 132.059 27.77 131.689 28.21C131.329 28.65 130.874 28.995 130.324 29.245C129.774 29.495 129.159 29.62 128.479 29.62C127.659 29.62 126.929 29.445 126.289 29.095C125.649 28.745 125.149 28.245 124.789 27.595C124.429 26.945 124.249 26.185 124.249 25.315C124.249 24.445 124.424 23.685 124.774 23.035C125.134 22.385 125.634 21.885 126.274 21.535C126.914 21.185 127.649 21.01 128.479 21.01C129.289 21.01 130.009 21.18 130.639 21.52C131.269 21.86 131.759 22.345 132.109 22.975C132.469 23.605 132.649 24.34 132.649 25.18ZM130.024 24.505C130.024 24.065 129.874 23.715 129.574 23.455C129.274 23.195 128.899 23.065 128.449 23.065C128.019 23.065 127.654 23.19 127.354 23.44C127.064 23.69 126.884 24.045 126.814 24.505H130.024ZM137.407 29.62C136.677 29.62 136.027 29.495 135.457 29.245C134.887 28.995 134.437 28.655 134.107 28.225C133.777 27.785 133.592 27.295 133.552 26.755H136.087C136.117 27.045 136.252 27.28 136.492 27.46C136.732 27.64 137.027 27.73 137.377 27.73C137.697 27.73 137.942 27.67 138.112 27.55C138.292 27.42 138.382 27.255 138.382 27.055C138.382 26.815 138.257 26.64 138.007 26.53C137.757 26.41 137.352 26.28 136.792 26.14C136.192 26 135.692 25.855 135.292 25.705C134.892 25.545 134.547 25.3 134.257 24.97C133.967 24.63 133.822 24.175 133.822 23.605C133.822 23.125 133.952 22.69 134.212 22.3C134.482 21.9 134.872 21.585 135.382 21.355C135.902 21.125 136.517 21.01 137.227 21.01C138.277 21.01 139.102 21.27 139.702 21.79C140.312 22.31 140.662 23 140.752 23.86H138.382C138.342 23.57 138.212 23.34 137.992 23.17C137.782 23 137.502 22.915 137.152 22.915C136.852 22.915 136.622 22.975 136.462 23.095C136.302 23.205 136.222 23.36 136.222 23.56C136.222 23.8 136.347 23.98 136.597 24.1C136.857 24.22 137.257 24.34 137.797 24.46C138.417 24.62 138.922 24.78 139.312 24.94C139.702 25.09 140.042 25.34 140.332 25.69C140.632 26.03 140.787 26.49 140.797 27.07C140.797 27.56 140.657 28 140.377 28.39C140.107 28.77 139.712 29.07 139.192 29.29C138.682 29.51 138.087 29.62 137.407 29.62Z" fill="#151515"/>
<path d="M154.033 27.1866L156.773 24.4466C156.897 24.3217 156.967 24.1527 156.967 23.9766C156.967 23.8005 156.897 23.6315 156.773 23.5066L154.107 20.84" stroke="#151515" stroke-width="2.5" stroke-linecap="round" stroke-linejoin="bevel"/>
</svg>
