<svg width="90" height="36" viewBox="0 0 90 36" fill="none" xmlns="http://www.w3.org/2000/svg">
<path d="M0 12C0 5.37258 5.37258 0 12 0H78C84.6274 0 90 5.37258 90 12V24C90 30.6274 84.6274 36 78 36H12C5.37258 36 0 30.6274 0 24V12Z" fill="#6A983C"/>
<path d="M19.305 18.1C19.915 18.23 20.405 18.535 20.775 19.015C21.145 19.485 21.33 20.025 21.33 20.635C21.33 21.515 21.02 22.215 20.4 22.735C19.79 23.245 18.935 23.5 17.835 23.5H12.93V12.97H17.67C18.74 12.97 19.575 13.215 20.175 13.705C20.785 14.195 21.09 14.86 21.09 15.7C21.09 16.32 20.925 16.835 20.595 17.245C20.275 17.655 19.845 17.94 19.305 18.1ZM15.495 17.23H17.175C17.595 17.23 17.915 17.14 18.135 16.96C18.365 16.77 18.48 16.495 18.48 16.135C18.48 15.775 18.365 15.5 18.135 15.31C17.915 15.12 17.595 15.025 17.175 15.025H15.495V17.23ZM17.385 21.43C17.815 21.43 18.145 21.335 18.375 21.145C18.615 20.945 18.735 20.66 18.735 20.29C18.735 19.92 18.61 19.63 18.36 19.42C18.12 19.21 17.785 19.105 17.355 19.105H15.495V21.43H17.385ZM31.0827 15.13V23.5H28.5177V22.36C28.2577 22.73 27.9027 23.03 27.4527 23.26C27.0127 23.48 26.5227 23.59 25.9827 23.59C25.3427 23.59 24.7777 23.45 24.2877 23.17C23.7977 22.88 23.4177 22.465 23.1477 21.925C22.8777 21.385 22.7427 20.75 22.7427 20.02V15.13H25.2927V19.675C25.2927 20.235 25.4377 20.67 25.7277 20.98C26.0177 21.29 26.4077 21.445 26.8977 21.445C27.3977 21.445 27.7927 21.29 28.0827 20.98C28.3727 20.67 28.5177 20.235 28.5177 19.675V15.13H31.0827ZM41.4751 15.13L36.2251 27.475H33.4651L35.3851 23.215L31.9801 15.13H34.8451L36.7801 20.365L38.7001 15.13H41.4751ZM50.6814 15.04C51.6614 15.04 52.4414 15.36 53.0214 16C53.6114 16.63 53.9064 17.5 53.9064 18.61V23.5H51.3564V18.955C51.3564 18.395 51.2114 17.96 50.9214 17.65C50.6314 17.34 50.2414 17.185 49.7514 17.185C49.2614 17.185 48.8714 17.34 48.5814 17.65C48.2914 17.96 48.1464 18.395 48.1464 18.955V23.5H45.5814V15.13H48.1464V16.24C48.4064 15.87 48.7564 15.58 49.1964 15.37C49.6364 15.15 50.1314 15.04 50.6814 15.04ZM59.4988 23.62C58.6788 23.62 57.9388 23.445 57.2788 23.095C56.6288 22.745 56.1138 22.245 55.7338 21.595C55.3638 20.945 55.1788 20.185 55.1788 19.315C55.1788 18.455 55.3688 17.7 55.7488 17.05C56.1288 16.39 56.6488 15.885 57.3088 15.535C57.9688 15.185 58.7088 15.01 59.5288 15.01C60.3488 15.01 61.0888 15.185 61.7488 15.535C62.4088 15.885 62.9288 16.39 63.3088 17.05C63.6888 17.7 63.8788 18.455 63.8788 19.315C63.8788 20.175 63.6838 20.935 63.2938 21.595C62.9138 22.245 62.3888 22.745 61.7188 23.095C61.0588 23.445 60.3188 23.62 59.4988 23.62ZM59.4988 21.4C59.9888 21.4 60.4038 21.22 60.7438 20.86C61.0938 20.5 61.2688 19.985 61.2688 19.315C61.2688 18.645 61.0988 18.13 60.7588 17.77C60.4288 17.41 60.0188 17.23 59.5288 17.23C59.0288 17.23 58.6138 17.41 58.2838 17.77C57.9538 18.12 57.7888 18.635 57.7888 19.315C57.7888 19.985 57.9488 20.5 58.2688 20.86C58.5988 21.22 59.0088 21.4 59.4988 21.4ZM77.2546 15.13L74.9896 23.5H72.1546L70.8346 18.07L69.4696 23.5H66.6496L64.3696 15.13H66.9346L68.1196 21.115L69.5296 15.13H72.2446L73.6696 21.085L74.8396 15.13H77.2546Z" fill="white"/>
<path d="M12 2H78V-2H12V2ZM88 12V24H92V12H88ZM78 34H12V38H78V34ZM2 24V12H-2V24H2ZM12 34C6.47715 34 2 29.5228 2 24H-2C-2 31.732 4.26801 38 12 38V34ZM88 24C88 29.5228 83.5229 34 78 34V38C85.732 38 92 31.732 92 24H88ZM78 2C83.5229 2 88 6.47715 88 12H92C92 4.26801 85.732 -2 78 -2V2ZM12 -2C4.26801 -2 -2 4.26801 -2 12H2C2 6.47715 6.47715 2 12 2V-2Z" fill="#46760A"/>
</svg>
