<svg width="1260" height="55" viewBox="0 0 1260 55" fill="none" xmlns="http://www.w3.org/2000/svg">
<path d="M0 0H1260V55H0V0Z" fill="#F9F9F9"/>
<path d="M51.705 27.645C52.265 27.745 52.74 28.04 53.13 28.53C53.52 29.02 53.715 29.575 53.715 30.195C53.715 30.725 53.575 31.205 53.295 31.635C53.025 32.055 52.63 32.39 52.11 32.64C51.59 32.88 50.985 33 50.295 33H46.125V22.575H50.1C50.81 22.575 51.42 22.695 51.93 22.935C52.44 23.175 52.825 23.5 53.085 23.91C53.345 24.31 53.475 24.76 53.475 25.26C53.475 25.86 53.315 26.36 52.995 26.76C52.675 27.16 52.245 27.455 51.705 27.645ZM47.835 26.955H49.95C50.51 26.955 50.945 26.83 51.255 26.58C51.575 26.32 51.735 25.95 51.735 25.47C51.735 25 51.575 24.635 51.255 24.375C50.945 24.105 50.51 23.97 49.95 23.97H47.835V26.955ZM50.145 31.605C50.725 31.605 51.18 31.465 51.51 31.185C51.84 30.905 52.005 30.515 52.005 30.015C52.005 29.505 51.83 29.1 51.48 28.8C51.13 28.5 50.665 28.35 50.085 28.35H47.835V31.605H50.145ZM55.0032 28.83C55.0032 28 55.1732 27.265 55.5132 26.625C55.8632 25.985 56.3332 25.49 56.9232 25.14C57.5232 24.78 58.1832 24.6 58.9032 24.6C59.5532 24.6 60.1182 24.73 60.5982 24.99C61.0882 25.24 61.4782 25.555 61.7682 25.935V24.735H63.4932V33H61.7682V31.77C61.4782 32.16 61.0832 32.485 60.5832 32.745C60.0832 33.005 59.5132 33.135 58.8732 33.135C58.1632 33.135 57.5132 32.955 56.9232 32.595C56.3332 32.225 55.8632 31.715 55.5132 31.065C55.1732 30.405 55.0032 29.66 55.0032 28.83ZM61.7682 28.86C61.7682 28.29 61.6482 27.795 61.4082 27.375C61.1782 26.955 60.8732 26.635 60.4932 26.415C60.1132 26.195 59.7032 26.085 59.2632 26.085C58.8232 26.085 58.4132 26.195 58.0332 26.415C57.6532 26.625 57.3432 26.94 57.1032 27.36C56.8732 27.77 56.7582 28.26 56.7582 28.83C56.7582 29.4 56.8732 29.9 57.1032 30.33C57.3432 30.76 57.6532 31.09 58.0332 31.32C58.4232 31.54 58.8332 31.65 59.2632 31.65C59.7032 31.65 60.1132 31.54 60.4932 31.32C60.8732 31.1 61.1782 30.78 61.4082 30.36C61.6482 29.93 61.7682 29.43 61.7682 28.86ZM69.0093 28.875L72.8193 33H70.5093L67.4493 29.445V33H65.7393V21.9H67.4493V28.35L70.4493 24.735H72.8193L69.0093 28.875ZM81.6199 28.665C81.6199 28.975 81.5999 29.255 81.5599 29.505H75.2449C75.2949 30.165 75.5399 30.695 75.9799 31.095C76.4199 31.495 76.9599 31.695 77.5999 31.695C78.5199 31.695 79.1699 31.31 79.5499 30.54H81.3949C81.1449 31.3 80.6899 31.925 80.0299 32.415C79.3799 32.895 78.5699 33.135 77.5999 33.135C76.8099 33.135 76.0999 32.96 75.4699 32.61C74.8499 32.25 74.3599 31.75 73.9999 31.11C73.6499 30.46 73.4749 29.71 73.4749 28.86C73.4749 28.01 73.6449 27.265 73.9849 26.625C74.3349 25.975 74.8199 25.475 75.4399 25.125C76.0699 24.775 76.7899 24.6 77.5999 24.6C78.3799 24.6 79.0749 24.77 79.6849 25.11C80.2949 25.45 80.7699 25.93 81.1099 26.55C81.4499 27.16 81.6199 27.865 81.6199 28.665ZM79.8349 28.125C79.8249 27.495 79.5999 26.99 79.1599 26.61C78.7199 26.23 78.1749 26.04 77.5249 26.04C76.9349 26.04 76.4299 26.23 76.0099 26.61C75.5899 26.98 75.3399 27.485 75.2599 28.125H79.8349ZM85.0127 25.935C85.2627 25.515 85.5927 25.19 86.0027 24.96C86.4227 24.72 86.9177 24.6 87.4877 24.6V26.37H87.0527C86.3827 26.37 85.8727 26.54 85.5227 26.88C85.1827 27.22 85.0127 27.81 85.0127 28.65V33H83.3027V24.735H85.0127V25.935ZM96.4996 24.735L91.4296 36.885H89.6596L91.3396 32.865L88.0846 24.735H89.9896L92.3146 31.035L94.7296 24.735H96.4996Z" fill="#151515"/>
<path d="M102.61 26.4L104.665 28.455C104.759 28.5481 104.886 28.6004 105.018 28.6004C105.15 28.6004 105.277 28.5481 105.37 28.455L107.37 26.455" stroke="#6A983C" stroke-width="1.5" stroke-linecap="round" stroke-linejoin="bevel"/>
<path d="M158.26 22.575V23.97H153.835V27.045H157.285V28.44H153.835V33H152.125V22.575H158.26ZM161.555 25.935C161.805 25.515 162.135 25.19 162.545 24.96C162.965 24.72 163.46 24.6 164.03 24.6V26.37H163.595C162.925 26.37 162.415 26.54 162.065 26.88C161.725 27.22 161.555 27.81 161.555 28.65V33H159.845V24.735H161.555V25.935ZM173.087 24.735V33H171.377V32.025C171.107 32.365 170.752 32.635 170.312 32.835C169.882 33.025 169.422 33.12 168.932 33.12C168.282 33.12 167.697 32.985 167.177 32.715C166.667 32.445 166.262 32.045 165.962 31.515C165.672 30.985 165.527 30.345 165.527 29.595V24.735H167.222V29.34C167.222 30.08 167.407 30.65 167.777 31.05C168.147 31.44 168.652 31.635 169.292 31.635C169.932 31.635 170.437 31.44 170.807 31.05C171.187 30.65 171.377 30.08 171.377 29.34V24.735H173.087ZM176.213 23.64C175.903 23.64 175.643 23.535 175.433 23.325C175.223 23.115 175.118 22.855 175.118 22.545C175.118 22.235 175.223 21.975 175.433 21.765C175.643 21.555 175.903 21.45 176.213 21.45C176.513 21.45 176.768 21.555 176.978 21.765C177.188 21.975 177.293 22.235 177.293 22.545C177.293 22.855 177.188 23.115 176.978 23.325C176.768 23.535 176.513 23.64 176.213 23.64ZM177.053 24.735V33H175.343V24.735H177.053ZM181.293 26.13V30.705C181.293 31.015 181.363 31.24 181.503 31.38C181.653 31.51 181.903 31.575 182.253 31.575H183.303V33H181.953C181.183 33 180.593 32.82 180.183 32.46C179.773 32.1 179.568 31.515 179.568 30.705V26.13H178.593V24.735H179.568V22.68H181.293V24.735H183.303V26.13H181.293ZM188.205 28.83C188.205 28 188.375 27.265 188.715 26.625C189.065 25.985 189.535 25.49 190.125 25.14C190.725 24.78 191.385 24.6 192.105 24.6C192.755 24.6 193.32 24.73 193.8 24.99C194.29 25.24 194.68 25.555 194.97 25.935V24.735H196.695V33H194.97V31.77C194.68 32.16 194.285 32.485 193.785 32.745C193.285 33.005 192.715 33.135 192.075 33.135C191.365 33.135 190.715 32.955 190.125 32.595C189.535 32.225 189.065 31.715 188.715 31.065C188.375 30.405 188.205 29.66 188.205 28.83ZM194.97 28.86C194.97 28.29 194.85 27.795 194.61 27.375C194.38 26.955 194.075 26.635 193.695 26.415C193.315 26.195 192.905 26.085 192.465 26.085C192.025 26.085 191.615 26.195 191.235 26.415C190.855 26.625 190.545 26.94 190.305 27.36C190.075 27.77 189.96 28.26 189.96 28.83C189.96 29.4 190.075 29.9 190.305 30.33C190.545 30.76 190.855 31.09 191.235 31.32C191.625 31.54 192.035 31.65 192.465 31.65C192.905 31.65 193.315 31.54 193.695 31.32C194.075 31.1 194.38 30.78 194.61 30.36C194.85 29.93 194.97 29.43 194.97 28.86ZM203.111 24.6C203.761 24.6 204.341 24.735 204.851 25.005C205.371 25.275 205.776 25.675 206.066 26.205C206.356 26.735 206.501 27.375 206.501 28.125V33H204.806V28.38C204.806 27.64 204.621 27.075 204.251 26.685C203.881 26.285 203.376 26.085 202.736 26.085C202.096 26.085 201.586 26.285 201.206 26.685C200.836 27.075 200.651 27.64 200.651 28.38V33H198.941V24.735H200.651V25.68C200.931 25.34 201.286 25.075 201.716 24.885C202.156 24.695 202.621 24.6 203.111 24.6ZM208.113 28.83C208.113 28 208.283 27.265 208.623 26.625C208.973 25.985 209.443 25.49 210.033 25.14C210.633 24.78 211.298 24.6 212.028 24.6C212.568 24.6 213.098 24.72 213.618 24.96C214.148 25.19 214.568 25.5 214.878 25.89V21.9H216.603V33H214.878V31.755C214.598 32.155 214.208 32.485 213.708 32.745C213.218 33.005 212.653 33.135 212.013 33.135C211.293 33.135 210.633 32.955 210.033 32.595C209.443 32.225 208.973 31.715 208.623 31.065C208.283 30.405 208.113 29.66 208.113 28.83ZM214.878 28.86C214.878 28.29 214.758 27.795 214.518 27.375C214.288 26.955 213.983 26.635 213.603 26.415C213.223 26.195 212.813 26.085 212.373 26.085C211.933 26.085 211.523 26.195 211.143 26.415C210.763 26.625 210.453 26.94 210.213 27.36C209.983 27.77 209.868 28.26 209.868 28.83C209.868 29.4 209.983 29.9 210.213 30.33C210.453 30.76 210.763 31.09 211.143 31.32C211.533 31.54 211.943 31.65 212.373 31.65C212.813 31.65 213.223 31.54 213.603 31.32C213.983 31.1 214.288 30.78 214.518 30.36C214.758 29.93 214.878 29.43 214.878 28.86ZM225.94 31.47L228.28 24.735H230.095L226.945 33H224.905L221.77 24.735H223.6L225.94 31.47ZM238.963 28.665C238.963 28.975 238.943 29.255 238.903 29.505H232.588C232.638 30.165 232.883 30.695 233.323 31.095C233.763 31.495 234.303 31.695 234.943 31.695C235.863 31.695 236.513 31.31 236.893 30.54H238.738C238.488 31.3 238.033 31.925 237.373 32.415C236.723 32.895 235.913 33.135 234.943 33.135C234.153 33.135 233.443 32.96 232.813 32.61C232.193 32.25 231.703 31.75 231.343 31.11C230.993 30.46 230.818 29.71 230.818 28.86C230.818 28.01 230.988 27.265 231.328 26.625C231.678 25.975 232.163 25.475 232.783 25.125C233.413 24.775 234.133 24.6 234.943 24.6C235.723 24.6 236.418 24.77 237.028 25.11C237.638 25.45 238.113 25.93 238.453 26.55C238.793 27.16 238.963 27.865 238.963 28.665ZM237.178 28.125C237.168 27.495 236.943 26.99 236.503 26.61C236.063 26.23 235.518 26.04 234.868 26.04C234.278 26.04 233.773 26.23 233.353 26.61C232.933 26.98 232.683 27.485 232.603 28.125H237.178ZM243.976 24.6C244.616 24.6 245.181 24.73 245.671 24.99C246.171 25.24 246.561 25.555 246.841 25.935V24.735H248.566V33.135C248.566 33.895 248.406 34.57 248.086 35.16C247.766 35.76 247.301 36.23 246.691 36.57C246.091 36.91 245.371 37.08 244.531 37.08C243.411 37.08 242.481 36.815 241.741 36.285C241.001 35.765 240.581 35.055 240.481 34.155H242.176C242.306 34.585 242.581 34.93 243.001 35.19C243.431 35.46 243.941 35.595 244.531 35.595C245.221 35.595 245.776 35.385 246.196 34.965C246.626 34.545 246.841 33.935 246.841 33.135V31.755C246.551 32.145 246.156 32.475 245.656 32.745C245.166 33.005 244.606 33.135 243.976 33.135C243.256 33.135 242.596 32.955 241.996 32.595C241.406 32.225 240.936 31.715 240.586 31.065C240.246 30.405 240.076 29.66 240.076 28.83C240.076 28 240.246 27.265 240.586 26.625C240.936 25.985 241.406 25.49 241.996 25.14C242.596 24.78 243.256 24.6 243.976 24.6ZM246.841 28.86C246.841 28.29 246.721 27.795 246.481 27.375C246.251 26.955 245.946 26.635 245.566 26.415C245.186 26.195 244.776 26.085 244.336 26.085C243.896 26.085 243.486 26.195 243.106 26.415C242.726 26.625 242.416 26.94 242.176 27.36C241.946 27.77 241.831 28.26 241.831 28.83C241.831 29.4 241.946 29.9 242.176 30.33C242.416 30.76 242.726 31.09 243.106 31.32C243.496 31.54 243.906 31.65 244.336 31.65C244.776 31.65 245.186 31.54 245.566 31.32C245.946 31.1 246.251 30.78 246.481 30.36C246.721 29.93 246.841 29.43 246.841 28.86ZM258.387 28.665C258.387 28.975 258.367 29.255 258.327 29.505H252.012C252.062 30.165 252.307 30.695 252.747 31.095C253.187 31.495 253.727 31.695 254.367 31.695C255.287 31.695 255.937 31.31 256.317 30.54H258.162C257.912 31.3 257.457 31.925 256.797 32.415C256.147 32.895 255.337 33.135 254.367 33.135C253.577 33.135 252.867 32.96 252.237 32.61C251.617 32.25 251.127 31.75 250.767 31.11C250.417 30.46 250.242 29.71 250.242 28.86C250.242 28.01 250.412 27.265 250.752 26.625C251.102 25.975 251.587 25.475 252.207 25.125C252.837 24.775 253.557 24.6 254.367 24.6C255.147 24.6 255.842 24.77 256.452 25.11C257.062 25.45 257.537 25.93 257.877 26.55C258.217 27.16 258.387 27.865 258.387 28.665ZM256.602 28.125C256.592 27.495 256.367 26.99 255.927 26.61C255.487 26.23 254.942 26.04 254.292 26.04C253.702 26.04 253.197 26.23 252.777 26.61C252.357 26.98 252.107 27.485 252.027 28.125H256.602ZM262.064 26.13V30.705C262.064 31.015 262.134 31.24 262.274 31.38C262.424 31.51 262.674 31.575 263.024 31.575H264.074V33H262.724C261.954 33 261.364 32.82 260.954 32.46C260.544 32.1 260.339 31.515 260.339 30.705V26.13H259.364V24.735H260.339V22.68H262.064V24.735H264.074V26.13H262.064ZM265.08 28.83C265.08 28 265.25 27.265 265.59 26.625C265.94 25.985 266.41 25.49 267 25.14C267.6 24.78 268.26 24.6 268.98 24.6C269.63 24.6 270.195 24.73 270.675 24.99C271.165 25.24 271.555 25.555 271.845 25.935V24.735H273.57V33H271.845V31.77C271.555 32.16 271.16 32.485 270.66 32.745C270.16 33.005 269.59 33.135 268.95 33.135C268.24 33.135 267.59 32.955 267 32.595C266.41 32.225 265.94 31.715 265.59 31.065C265.25 30.405 265.08 29.66 265.08 28.83ZM271.845 28.86C271.845 28.29 271.725 27.795 271.485 27.375C271.255 26.955 270.95 26.635 270.57 26.415C270.19 26.195 269.78 26.085 269.34 26.085C268.9 26.085 268.49 26.195 268.11 26.415C267.73 26.625 267.42 26.94 267.18 27.36C266.95 27.77 266.835 28.26 266.835 28.83C266.835 29.4 266.95 29.9 267.18 30.33C267.42 30.76 267.73 31.09 268.11 31.32C268.5 31.54 268.91 31.65 269.34 31.65C269.78 31.65 270.19 31.54 270.57 31.32C270.95 31.1 271.255 30.78 271.485 30.36C271.725 29.93 271.845 29.43 271.845 28.86ZM277.526 25.965C277.816 25.565 278.211 25.24 278.711 24.99C279.221 24.73 279.786 24.6 280.406 24.6C281.136 24.6 281.796 24.775 282.386 25.125C282.976 25.475 283.441 25.975 283.781 26.625C284.121 27.265 284.291 28 284.291 28.83C284.291 29.66 284.121 30.405 283.781 31.065C283.441 31.715 282.971 32.225 282.371 32.595C281.781 32.955 281.126 33.135 280.406 33.135C279.766 33.135 279.196 33.01 278.696 32.76C278.206 32.51 277.816 32.19 277.526 31.8V33H275.816V21.9H277.526V25.965ZM282.551 28.83C282.551 28.26 282.431 27.77 282.191 27.36C281.961 26.94 281.651 26.625 281.261 26.415C280.881 26.195 280.471 26.085 280.031 26.085C279.601 26.085 279.191 26.195 278.801 26.415C278.421 26.635 278.111 26.955 277.871 27.375C277.641 27.795 277.526 28.29 277.526 28.86C277.526 29.43 277.641 29.93 277.871 30.36C278.111 30.78 278.421 31.1 278.801 31.32C279.191 31.54 279.601 31.65 280.031 31.65C280.471 31.65 280.881 31.54 281.261 31.32C281.651 31.09 281.961 30.76 282.191 30.33C282.431 29.9 282.551 29.4 282.551 28.83ZM287.692 21.9V33H285.982V21.9H287.692ZM297.513 28.665C297.513 28.975 297.493 29.255 297.453 29.505H291.138C291.188 30.165 291.433 30.695 291.873 31.095C292.313 31.495 292.853 31.695 293.493 31.695C294.413 31.695 295.063 31.31 295.443 30.54H297.287C297.038 31.3 296.583 31.925 295.923 32.415C295.273 32.895 294.463 33.135 293.493 33.135C292.703 33.135 291.993 32.96 291.363 32.61C290.743 32.25 290.253 31.75 289.893 31.11C289.543 30.46 289.368 29.71 289.368 28.86C289.368 28.01 289.538 27.265 289.878 26.625C290.228 25.975 290.713 25.475 291.333 25.125C291.963 24.775 292.683 24.6 293.493 24.6C294.273 24.6 294.968 24.77 295.578 25.11C296.188 25.45 296.663 25.93 297.003 26.55C297.343 27.16 297.513 27.865 297.513 28.665ZM295.728 28.125C295.718 27.495 295.493 26.99 295.053 26.61C294.613 26.23 294.068 26.04 293.418 26.04C292.828 26.04 292.323 26.23 291.903 26.61C291.483 26.98 291.233 27.485 291.153 28.125H295.728ZM302.195 33.135C301.545 33.135 300.96 33.02 300.44 32.79C299.93 32.55 299.525 32.23 299.225 31.83C298.925 31.42 298.765 30.965 298.745 30.465H300.515C300.545 30.815 300.71 31.11 301.01 31.35C301.32 31.58 301.705 31.695 302.165 31.695C302.645 31.695 303.015 31.605 303.275 31.425C303.545 31.235 303.68 30.995 303.68 30.705C303.68 30.395 303.53 30.165 303.23 30.015C302.94 29.865 302.475 29.7 301.835 29.52C301.215 29.35 300.71 29.185 300.32 29.025C299.93 28.865 299.59 28.62 299.3 28.29C299.02 27.96 298.88 27.525 298.88 26.985C298.88 26.545 299.01 26.145 299.27 25.785C299.53 25.415 299.9 25.125 300.38 24.915C300.87 24.705 301.43 24.6 302.06 24.6C303 24.6 303.755 24.84 304.325 25.32C304.905 25.79 305.215 26.435 305.255 27.255H303.545C303.515 26.885 303.365 26.59 303.095 26.37C302.825 26.15 302.46 26.04 302 26.04C301.55 26.04 301.205 26.125 300.965 26.295C300.725 26.465 300.605 26.69 300.605 26.97C300.605 27.19 300.685 27.375 300.845 27.525C301.005 27.675 301.2 27.795 301.43 27.885C301.66 27.965 302 28.07 302.45 28.2C303.05 28.36 303.54 28.525 303.92 28.695C304.31 28.855 304.645 29.095 304.925 29.415C305.205 29.735 305.35 30.16 305.36 30.69C305.36 31.16 305.23 31.58 304.97 31.95C304.71 32.32 304.34 32.61 303.86 32.82C303.39 33.03 302.835 33.135 302.195 33.135Z" fill="#151515"/>
<path d="M312.61 26.4L314.665 28.455C314.759 28.5481 314.886 28.6004 315.018 28.6004C315.15 28.6004 315.277 28.5481 315.37 28.455L317.37 26.455" stroke="#6A983C" stroke-width="1.5" stroke-linecap="round" stroke-linejoin="bevel"/>
<path d="M373.105 22.575V33H371.395V25.86L368.215 33H367.03L363.835 25.86V33H362.125V22.575H363.97L367.63 30.75L371.275 22.575H373.105ZM382.928 28.665C382.928 28.975 382.908 29.255 382.868 29.505H376.553C376.603 30.165 376.848 30.695 377.288 31.095C377.728 31.495 378.268 31.695 378.908 31.695C379.828 31.695 380.478 31.31 380.858 30.54H382.703C382.453 31.3 381.998 31.925 381.338 32.415C380.688 32.895 379.878 33.135 378.908 33.135C378.118 33.135 377.408 32.96 376.778 32.61C376.158 32.25 375.668 31.75 375.308 31.11C374.958 30.46 374.783 29.71 374.783 28.86C374.783 28.01 374.953 27.265 375.293 26.625C375.643 25.975 376.128 25.475 376.748 25.125C377.378 24.775 378.098 24.6 378.908 24.6C379.688 24.6 380.383 24.77 380.993 25.11C381.603 25.45 382.078 25.93 382.418 26.55C382.758 27.16 382.928 27.865 382.928 28.665ZM381.143 28.125C381.133 27.495 380.908 26.99 380.468 26.61C380.028 26.23 379.483 26.04 378.833 26.04C378.243 26.04 377.738 26.23 377.318 26.61C376.898 26.98 376.648 27.485 376.568 28.125H381.143ZM384.04 28.83C384.04 28 384.21 27.265 384.55 26.625C384.9 25.985 385.37 25.49 385.96 25.14C386.56 24.78 387.22 24.6 387.94 24.6C388.59 24.6 389.155 24.73 389.635 24.99C390.125 25.24 390.515 25.555 390.805 25.935V24.735H392.53V33H390.805V31.77C390.515 32.16 390.12 32.485 389.62 32.745C389.12 33.005 388.55 33.135 387.91 33.135C387.2 33.135 386.55 32.955 385.96 32.595C385.37 32.225 384.9 31.715 384.55 31.065C384.21 30.405 384.04 29.66 384.04 28.83ZM390.805 28.86C390.805 28.29 390.685 27.795 390.445 27.375C390.215 26.955 389.91 26.635 389.53 26.415C389.15 26.195 388.74 26.085 388.3 26.085C387.86 26.085 387.45 26.195 387.07 26.415C386.69 26.625 386.38 26.94 386.14 27.36C385.91 27.77 385.795 28.26 385.795 28.83C385.795 29.4 385.91 29.9 386.14 30.33C386.38 30.76 386.69 31.09 387.07 31.32C387.46 31.54 387.87 31.65 388.3 31.65C388.74 31.65 389.15 31.54 389.53 31.32C389.91 31.1 390.215 30.78 390.445 30.36C390.685 29.93 390.805 29.43 390.805 28.86ZM396.771 26.13V30.705C396.771 31.015 396.841 31.24 396.981 31.38C397.131 31.51 397.381 31.575 397.731 31.575H398.781V33H397.431C396.661 33 396.071 32.82 395.661 32.46C395.251 32.1 395.046 31.515 395.046 30.705V26.13H394.071V24.735H395.046V22.68H396.771V24.735H398.781V26.13H396.771ZM403.684 28.83C403.684 28 403.854 27.265 404.194 26.625C404.544 25.985 405.014 25.49 405.604 25.14C406.204 24.78 406.864 24.6 407.584 24.6C408.234 24.6 408.799 24.73 409.279 24.99C409.769 25.24 410.159 25.555 410.449 25.935V24.735H412.174V33H410.449V31.77C410.159 32.16 409.764 32.485 409.264 32.745C408.764 33.005 408.194 33.135 407.554 33.135C406.844 33.135 406.194 32.955 405.604 32.595C405.014 32.225 404.544 31.715 404.194 31.065C403.854 30.405 403.684 29.66 403.684 28.83ZM410.449 28.86C410.449 28.29 410.329 27.795 410.089 27.375C409.859 26.955 409.554 26.635 409.174 26.415C408.794 26.195 408.384 26.085 407.944 26.085C407.504 26.085 407.094 26.195 406.714 26.415C406.334 26.625 406.024 26.94 405.784 27.36C405.554 27.77 405.439 28.26 405.439 28.83C405.439 29.4 405.554 29.9 405.784 30.33C406.024 30.76 406.334 31.09 406.714 31.32C407.104 31.54 407.514 31.65 407.944 31.65C408.384 31.65 408.794 31.54 409.174 31.32C409.554 31.1 409.859 30.78 410.089 30.36C410.329 29.93 410.449 29.43 410.449 28.86ZM418.59 24.6C419.24 24.6 419.82 24.735 420.33 25.005C420.85 25.275 421.255 25.675 421.545 26.205C421.835 26.735 421.98 27.375 421.98 28.125V33H420.285V28.38C420.285 27.64 420.1 27.075 419.73 26.685C419.36 26.285 418.855 26.085 418.215 26.085C417.575 26.085 417.065 26.285 416.685 26.685C416.315 27.075 416.13 27.64 416.13 28.38V33H414.42V24.735H416.13V25.68C416.41 25.34 416.765 25.075 417.195 24.885C417.635 24.695 418.1 24.6 418.59 24.6ZM423.591 28.83C423.591 28 423.761 27.265 424.101 26.625C424.451 25.985 424.921 25.49 425.511 25.14C426.111 24.78 426.776 24.6 427.506 24.6C428.046 24.6 428.576 24.72 429.096 24.96C429.626 25.19 430.046 25.5 430.356 25.89V21.9H432.081V33H430.356V31.755C430.076 32.155 429.686 32.485 429.186 32.745C428.696 33.005 428.131 33.135 427.491 33.135C426.771 33.135 426.111 32.955 425.511 32.595C424.921 32.225 424.451 31.715 424.101 31.065C423.761 30.405 423.591 29.66 423.591 28.83ZM430.356 28.86C430.356 28.29 430.236 27.795 429.996 27.375C429.766 26.955 429.461 26.635 429.081 26.415C428.701 26.195 428.291 26.085 427.851 26.085C427.411 26.085 427.001 26.195 426.621 26.415C426.241 26.625 425.931 26.94 425.691 27.36C425.461 27.77 425.346 28.26 425.346 28.83C425.346 29.4 425.461 29.9 425.691 30.33C425.931 30.76 426.241 31.09 426.621 31.32C427.011 31.54 427.421 31.65 427.851 31.65C428.291 31.65 428.701 31.54 429.081 31.32C429.461 31.1 429.766 30.78 429.996 30.36C430.236 29.93 430.356 29.43 430.356 28.86ZM441.689 26.13H440.159V33H438.434V26.13H437.459V24.735H438.434V24.15C438.434 23.2 438.684 22.51 439.184 22.08C439.694 21.64 440.489 21.42 441.569 21.42V22.845C441.049 22.845 440.684 22.945 440.474 23.145C440.264 23.335 440.159 23.67 440.159 24.15V24.735H441.689V26.13ZM444.074 23.64C443.764 23.64 443.504 23.535 443.294 23.325C443.084 23.115 442.979 22.855 442.979 22.545C442.979 22.235 443.084 21.975 443.294 21.765C443.504 21.555 443.764 21.45 444.074 21.45C444.374 21.45 444.629 21.555 444.839 21.765C445.049 21.975 445.154 22.235 445.154 22.545C445.154 22.855 445.049 23.115 444.839 23.325C444.629 23.535 444.374 23.64 444.074 23.64ZM444.914 24.735V33H443.204V24.735H444.914ZM450.159 33.135C449.509 33.135 448.924 33.02 448.404 32.79C447.894 32.55 447.489 32.23 447.189 31.83C446.889 31.42 446.729 30.965 446.709 30.465H448.479C448.509 30.815 448.674 31.11 448.974 31.35C449.284 31.58 449.669 31.695 450.129 31.695C450.609 31.695 450.979 31.605 451.239 31.425C451.509 31.235 451.644 30.995 451.644 30.705C451.644 30.395 451.494 30.165 451.194 30.015C450.904 29.865 450.439 29.7 449.799 29.52C449.179 29.35 448.674 29.185 448.284 29.025C447.894 28.865 447.554 28.62 447.264 28.29C446.984 27.96 446.844 27.525 446.844 26.985C446.844 26.545 446.974 26.145 447.234 25.785C447.494 25.415 447.864 25.125 448.344 24.915C448.834 24.705 449.394 24.6 450.024 24.6C450.964 24.6 451.719 24.84 452.289 25.32C452.869 25.79 453.179 26.435 453.219 27.255H451.509C451.479 26.885 451.329 26.59 451.059 26.37C450.789 26.15 450.424 26.04 449.964 26.04C449.514 26.04 449.169 26.125 448.929 26.295C448.689 26.465 448.569 26.69 448.569 26.97C448.569 27.19 448.649 27.375 448.809 27.525C448.969 27.675 449.164 27.795 449.394 27.885C449.624 27.965 449.964 28.07 450.414 28.2C451.014 28.36 451.504 28.525 451.884 28.695C452.274 28.855 452.609 29.095 452.889 29.415C453.169 29.735 453.314 30.16 453.324 30.69C453.324 31.16 453.194 31.58 452.934 31.95C452.674 32.32 452.304 32.61 451.824 32.82C451.354 33.03 450.799 33.135 450.159 33.135ZM459.447 24.6C460.077 24.6 460.637 24.735 461.127 25.005C461.627 25.275 462.017 25.675 462.297 26.205C462.587 26.735 462.732 27.375 462.732 28.125V33H461.037V28.38C461.037 27.64 460.852 27.075 460.482 26.685C460.112 26.285 459.607 26.085 458.967 26.085C458.327 26.085 457.817 26.285 457.437 26.685C457.067 27.075 456.882 27.64 456.882 28.38V33H455.172V21.9H456.882V25.695C457.172 25.345 457.537 25.075 457.977 24.885C458.427 24.695 458.917 24.6 459.447 24.6Z" fill="#151515"/>
<path d="M469.61 26.4L471.665 28.455C471.759 28.5481 471.886 28.6004 472.018 28.6004C472.15 28.6004 472.277 28.5481 472.37 28.455L474.37 26.455" stroke="#6A983C" stroke-width="1.5" stroke-linecap="round" stroke-linejoin="bevel"/>
<path d="M522.53 22.575C523.64 22.575 524.61 22.79 525.44 23.22C526.28 23.64 526.925 24.25 527.375 25.05C527.835 25.84 528.065 26.765 528.065 27.825C528.065 28.885 527.835 29.805 527.375 30.585C526.925 31.365 526.28 31.965 525.44 32.385C524.61 32.795 523.64 33 522.53 33H519.125V22.575H522.53ZM522.53 31.605C523.75 31.605 524.685 31.275 525.335 30.615C525.985 29.955 526.31 29.025 526.31 27.825C526.31 26.615 525.985 25.67 525.335 24.99C524.685 24.31 523.75 23.97 522.53 23.97H520.835V31.605H522.53ZM531.47 25.935C531.72 25.515 532.05 25.19 532.46 24.96C532.88 24.72 533.375 24.6 533.945 24.6V26.37H533.51C532.84 26.37 532.33 26.54 531.98 26.88C531.64 27.22 531.47 27.81 531.47 28.65V33H529.76V24.735H531.47V25.935ZM536.387 23.64C536.077 23.64 535.817 23.535 535.607 23.325C535.397 23.115 535.292 22.855 535.292 22.545C535.292 22.235 535.397 21.975 535.607 21.765C535.817 21.555 536.077 21.45 536.387 21.45C536.687 21.45 536.942 21.555 537.152 21.765C537.362 21.975 537.467 22.235 537.467 22.545C537.467 22.855 537.362 23.115 537.152 23.325C536.942 23.535 536.687 23.64 536.387 23.64ZM537.227 24.735V33H535.517V24.735H537.227ZM543.642 24.6C544.292 24.6 544.872 24.735 545.382 25.005C545.902 25.275 546.307 25.675 546.597 26.205C546.887 26.735 547.032 27.375 547.032 28.125V33H545.337V28.38C545.337 27.64 545.152 27.075 544.782 26.685C544.412 26.285 543.907 26.085 543.267 26.085C542.627 26.085 542.117 26.285 541.737 26.685C541.367 27.075 541.182 27.64 541.182 28.38V33H539.472V24.735H541.182V25.68C541.462 25.34 541.817 25.075 542.247 24.885C542.687 24.695 543.152 24.6 543.642 24.6ZM552.483 28.875L556.293 33H553.983L550.923 29.445V33H549.213V21.9H550.923V28.35L553.923 24.735H556.293L552.483 28.875ZM560.519 33.135C559.869 33.135 559.284 33.02 558.764 32.79C558.254 32.55 557.849 32.23 557.549 31.83C557.249 31.42 557.089 30.965 557.069 30.465H558.839C558.869 30.815 559.034 31.11 559.334 31.35C559.644 31.58 560.029 31.695 560.489 31.695C560.969 31.695 561.339 31.605 561.599 31.425C561.869 31.235 562.004 30.995 562.004 30.705C562.004 30.395 561.854 30.165 561.554 30.015C561.264 29.865 560.799 29.7 560.159 29.52C559.539 29.35 559.034 29.185 558.644 29.025C558.254 28.865 557.914 28.62 557.624 28.29C557.344 27.96 557.204 27.525 557.204 26.985C557.204 26.545 557.334 26.145 557.594 25.785C557.854 25.415 558.224 25.125 558.704 24.915C559.194 24.705 559.754 24.6 560.384 24.6C561.324 24.6 562.079 24.84 562.649 25.32C563.229 25.79 563.539 26.435 563.579 27.255H561.869C561.839 26.885 561.689 26.59 561.419 26.37C561.149 26.15 560.784 26.04 560.324 26.04C559.874 26.04 559.529 26.125 559.289 26.295C559.049 26.465 558.929 26.69 558.929 26.97C558.929 27.19 559.009 27.375 559.169 27.525C559.329 27.675 559.524 27.795 559.754 27.885C559.984 27.965 560.324 28.07 560.774 28.2C561.374 28.36 561.864 28.525 562.244 28.695C562.634 28.855 562.969 29.095 563.249 29.415C563.529 29.735 563.674 30.16 563.684 30.69C563.684 31.16 563.554 31.58 563.294 31.95C563.034 32.32 562.664 32.61 562.184 32.82C561.714 33.03 561.159 33.135 560.519 33.135Z" fill="#151515"/>
<path d="M570.61 26.4L572.665 28.455C572.759 28.5481 572.886 28.6004 573.018 28.6004C573.15 28.6004 573.277 28.5481 573.37 28.455L575.37 26.455" stroke="#6A983C" stroke-width="1.5" stroke-linecap="round" stroke-linejoin="bevel"/>
<path d="M625.87 33L621.835 28.335V33H620.125V22.575H621.835V27.33L625.885 22.575H628.03L623.5 27.795L628.105 33H625.87ZM630.487 23.64C630.177 23.64 629.917 23.535 629.707 23.325C629.497 23.115 629.392 22.855 629.392 22.545C629.392 22.235 629.497 21.975 629.707 21.765C629.917 21.555 630.177 21.45 630.487 21.45C630.787 21.45 631.042 21.555 631.252 21.765C631.462 21.975 631.567 22.235 631.567 22.545C631.567 22.855 631.462 23.115 631.252 23.325C631.042 23.535 630.787 23.64 630.487 23.64ZM631.327 24.735V33H629.617V24.735H631.327ZM635.567 26.13V30.705C635.567 31.015 635.637 31.24 635.777 31.38C635.927 31.51 636.177 31.575 636.527 31.575H637.577V33H636.227C635.457 33 634.867 32.82 634.457 32.46C634.047 32.1 633.842 31.515 633.842 30.705V26.13H632.867V24.735H633.842V22.68H635.567V24.735H637.577V26.13H635.567ZM638.583 28.86C638.583 28.01 638.753 27.265 639.093 26.625C639.443 25.975 639.923 25.475 640.533 25.125C641.143 24.775 641.843 24.6 642.633 24.6C643.633 24.6 644.458 24.84 645.108 25.32C645.768 25.79 646.213 26.465 646.443 27.345H644.598C644.448 26.935 644.208 26.615 643.878 26.385C643.548 26.155 643.133 26.04 642.633 26.04C641.933 26.04 641.373 26.29 640.953 26.79C640.543 27.28 640.338 27.97 640.338 28.86C640.338 29.75 640.543 30.445 640.953 30.945C641.373 31.445 641.933 31.695 642.633 31.695C643.623 31.695 644.278 31.26 644.598 30.39H646.443C646.203 31.23 645.753 31.9 645.093 32.4C644.433 32.89 643.613 33.135 642.633 33.135C641.843 33.135 641.143 32.96 640.533 32.61C639.923 32.25 639.443 31.75 639.093 31.11C638.753 30.46 638.583 29.71 638.583 28.86ZM652.422 24.6C653.052 24.6 653.612 24.735 654.102 25.005C654.602 25.275 654.992 25.675 655.272 26.205C655.562 26.735 655.707 27.375 655.707 28.125V33H654.012V28.38C654.012 27.64 653.827 27.075 653.457 26.685C653.087 26.285 652.582 26.085 651.942 26.085C651.302 26.085 650.792 26.285 650.412 26.685C650.042 27.075 649.857 27.64 649.857 28.38V33H648.147V21.9H649.857V25.695C650.147 25.345 650.512 25.075 650.952 24.885C651.402 24.695 651.892 24.6 652.422 24.6ZM665.464 28.665C665.464 28.975 665.444 29.255 665.404 29.505H659.089C659.139 30.165 659.384 30.695 659.824 31.095C660.264 31.495 660.804 31.695 661.444 31.695C662.364 31.695 663.014 31.31 663.394 30.54H665.239C664.989 31.3 664.534 31.925 663.874 32.415C663.224 32.895 662.414 33.135 661.444 33.135C660.654 33.135 659.944 32.96 659.314 32.61C658.694 32.25 658.204 31.75 657.844 31.11C657.494 30.46 657.319 29.71 657.319 28.86C657.319 28.01 657.489 27.265 657.829 26.625C658.179 25.975 658.664 25.475 659.284 25.125C659.914 24.775 660.634 24.6 661.444 24.6C662.224 24.6 662.919 24.77 663.529 25.11C664.139 25.45 664.614 25.93 664.954 26.55C665.294 27.16 665.464 27.865 665.464 28.665ZM663.679 28.125C663.669 27.495 663.444 26.99 663.004 26.61C662.564 26.23 662.019 26.04 661.369 26.04C660.779 26.04 660.274 26.23 659.854 26.61C659.434 26.98 659.184 27.485 659.104 28.125H663.679ZM671.316 24.6C671.966 24.6 672.546 24.735 673.056 25.005C673.576 25.275 673.981 25.675 674.271 26.205C674.561 26.735 674.706 27.375 674.706 28.125V33H673.011V28.38C673.011 27.64 672.826 27.075 672.456 26.685C672.086 26.285 671.581 26.085 670.941 26.085C670.301 26.085 669.791 26.285 669.411 26.685C669.041 27.075 668.856 27.64 668.856 28.38V33H667.146V24.735H668.856V25.68C669.136 25.34 669.491 25.075 669.921 24.885C670.361 24.695 670.826 24.6 671.316 24.6Z" fill="#151515"/>
<path d="M681.61 26.4L683.665 28.455C683.759 28.5481 683.886 28.6004 684.018 28.6004C684.15 28.6004 684.277 28.5481 684.37 28.455L686.37 26.455" stroke="#6A983C" stroke-width="1.5" stroke-linecap="round" stroke-linejoin="bevel"/>
<path d="M734.56 33.105C733.86 33.105 733.23 32.985 732.67 32.745C732.11 32.495 731.67 32.145 731.35 31.695C731.03 31.245 730.87 30.72 730.87 30.12H732.7C732.74 30.57 732.915 30.94 733.225 31.23C733.545 31.52 733.99 31.665 734.56 31.665C735.15 31.665 735.61 31.525 735.94 31.245C736.27 30.955 736.435 30.585 736.435 30.135C736.435 29.785 736.33 29.5 736.12 29.28C735.92 29.06 735.665 28.89 735.355 28.77C735.055 28.65 734.635 28.52 734.095 28.38C733.415 28.2 732.86 28.02 732.43 27.84C732.01 27.65 731.65 27.36 731.35 26.97C731.05 26.58 730.9 26.06 730.9 25.41C730.9 24.81 731.05 24.285 731.35 23.835C731.65 23.385 732.07 23.04 732.61 22.8C733.15 22.56 733.775 22.44 734.485 22.44C735.495 22.44 736.32 22.695 736.96 23.205C737.61 23.705 737.97 24.395 738.04 25.275H736.15C736.12 24.895 735.94 24.57 735.61 24.3C735.28 24.03 734.845 23.895 734.305 23.895C733.815 23.895 733.415 24.02 733.105 24.27C732.795 24.52 732.64 24.88 732.64 25.35C732.64 25.67 732.735 25.935 732.925 26.145C733.125 26.345 733.375 26.505 733.675 26.625C733.975 26.745 734.385 26.875 734.905 27.015C735.595 27.205 736.155 27.395 736.585 27.585C737.025 27.775 737.395 28.07 737.695 28.47C738.005 28.86 738.16 29.385 738.16 30.045C738.16 30.575 738.015 31.075 737.725 31.545C737.445 32.015 737.03 32.395 736.48 32.685C735.94 32.965 735.3 33.105 734.56 33.105ZM741.888 25.95C742.178 25.57 742.573 25.25 743.073 24.99C743.573 24.73 744.138 24.6 744.768 24.6C745.488 24.6 746.143 24.78 746.733 25.14C747.333 25.49 747.803 25.985 748.143 26.625C748.483 27.265 748.653 28 748.653 28.83C748.653 29.66 748.483 30.405 748.143 31.065C747.803 31.715 747.333 32.225 746.733 32.595C746.143 32.955 745.488 33.135 744.768 33.135C744.138 33.135 743.578 33.01 743.088 32.76C742.598 32.5 742.198 32.18 741.888 31.8V36.93H740.178V24.735H741.888V25.95ZM746.913 28.83C746.913 28.26 746.793 27.77 746.553 27.36C746.323 26.94 746.013 26.625 745.623 26.415C745.243 26.195 744.833 26.085 744.393 26.085C743.963 26.085 743.553 26.195 743.163 26.415C742.783 26.635 742.473 26.955 742.233 27.375C742.003 27.795 741.888 28.29 741.888 28.86C741.888 29.43 742.003 29.93 742.233 30.36C742.473 30.78 742.783 31.1 743.163 31.32C743.553 31.54 743.963 31.65 744.393 31.65C744.833 31.65 745.243 31.54 745.623 31.32C746.013 31.09 746.323 30.76 746.553 30.33C746.793 29.9 746.913 29.4 746.913 28.83ZM757.919 28.665C757.919 28.975 757.899 29.255 757.859 29.505H751.544C751.594 30.165 751.839 30.695 752.279 31.095C752.719 31.495 753.259 31.695 753.899 31.695C754.819 31.695 755.469 31.31 755.849 30.54H757.694C757.444 31.3 756.989 31.925 756.329 32.415C755.679 32.895 754.869 33.135 753.899 33.135C753.109 33.135 752.399 32.96 751.769 32.61C751.149 32.25 750.659 31.75 750.299 31.11C749.949 30.46 749.774 29.71 749.774 28.86C749.774 28.01 749.944 27.265 750.284 26.625C750.634 25.975 751.119 25.475 751.739 25.125C752.369 24.775 753.089 24.6 753.899 24.6C754.679 24.6 755.374 24.77 755.984 25.11C756.594 25.45 757.069 25.93 757.409 26.55C757.749 27.16 757.919 27.865 757.919 28.665ZM756.134 28.125C756.124 27.495 755.899 26.99 755.459 26.61C755.019 26.23 754.474 26.04 753.824 26.04C753.234 26.04 752.729 26.23 752.309 26.61C751.889 26.98 751.639 27.485 751.559 28.125H756.134ZM759.032 28.86C759.032 28.01 759.202 27.265 759.542 26.625C759.892 25.975 760.372 25.475 760.982 25.125C761.592 24.775 762.292 24.6 763.082 24.6C764.082 24.6 764.907 24.84 765.557 25.32C766.217 25.79 766.662 26.465 766.892 27.345H765.047C764.897 26.935 764.657 26.615 764.327 26.385C763.997 26.155 763.582 26.04 763.082 26.04C762.382 26.04 761.822 26.29 761.402 26.79C760.992 27.28 760.787 27.97 760.787 28.86C760.787 29.75 760.992 30.445 761.402 30.945C761.822 31.445 762.382 31.695 763.082 31.695C764.072 31.695 764.727 31.26 765.047 30.39H766.892C766.652 31.23 766.202 31.9 765.542 32.4C764.882 32.89 764.062 33.135 763.082 33.135C762.292 33.135 761.592 32.96 760.982 32.61C760.372 32.25 759.892 31.75 759.542 31.11C759.202 30.46 759.032 29.71 759.032 28.86ZM769.466 23.64C769.156 23.64 768.896 23.535 768.686 23.325C768.476 23.115 768.371 22.855 768.371 22.545C768.371 22.235 768.476 21.975 768.686 21.765C768.896 21.555 769.156 21.45 769.466 21.45C769.766 21.45 770.021 21.555 770.231 21.765C770.441 21.975 770.546 22.235 770.546 22.545C770.546 22.855 770.441 23.115 770.231 23.325C770.021 23.535 769.766 23.64 769.466 23.64ZM770.306 24.735V33H768.596V24.735H770.306ZM771.981 28.83C771.981 28 772.151 27.265 772.491 26.625C772.841 25.985 773.311 25.49 773.901 25.14C774.501 24.78 775.161 24.6 775.881 24.6C776.531 24.6 777.096 24.73 777.576 24.99C778.066 25.24 778.456 25.555 778.746 25.935V24.735H780.471V33H778.746V31.77C778.456 32.16 778.061 32.485 777.561 32.745C777.061 33.005 776.491 33.135 775.851 33.135C775.141 33.135 774.491 32.955 773.901 32.595C773.311 32.225 772.841 31.715 772.491 31.065C772.151 30.405 771.981 29.66 771.981 28.83ZM778.746 28.86C778.746 28.29 778.626 27.795 778.386 27.375C778.156 26.955 777.851 26.635 777.471 26.415C777.091 26.195 776.681 26.085 776.241 26.085C775.801 26.085 775.391 26.195 775.011 26.415C774.631 26.625 774.321 26.94 774.081 27.36C773.851 27.77 773.736 28.26 773.736 28.83C773.736 29.4 773.851 29.9 774.081 30.33C774.321 30.76 774.631 31.09 775.011 31.32C775.401 31.54 775.811 31.65 776.241 31.65C776.681 31.65 777.091 31.54 777.471 31.32C777.851 31.1 778.156 30.78 778.386 30.36C778.626 29.93 778.746 29.43 778.746 28.86ZM784.427 21.9V33H782.717V21.9H784.427ZM794.738 24.6C795.388 24.6 795.968 24.735 796.478 25.005C796.998 25.275 797.403 25.675 797.693 26.205C797.983 26.735 798.128 27.375 798.128 28.125V33H796.433V28.38C796.433 27.64 796.248 27.075 795.878 26.685C795.508 26.285 795.003 26.085 794.363 26.085C793.723 26.085 793.213 26.285 792.833 26.685C792.463 27.075 792.278 27.64 792.278 28.38V33H790.568V24.735H792.278V25.68C792.558 25.34 792.913 25.075 793.343 24.885C793.783 24.695 794.248 24.6 794.738 24.6ZM807.795 24.735V33H806.085V32.025C805.815 32.365 805.46 32.635 805.02 32.835C804.59 33.025 804.13 33.12 803.64 33.12C802.99 33.12 802.405 32.985 801.885 32.715C801.375 32.445 800.97 32.045 800.67 31.515C800.38 30.985 800.235 30.345 800.235 29.595V24.735H801.93V29.34C801.93 30.08 802.115 30.65 802.485 31.05C802.855 31.44 803.36 31.635 804 31.635C804.64 31.635 805.145 31.44 805.515 31.05C805.895 30.65 806.085 30.08 806.085 29.34V24.735H807.795ZM812.046 26.13V30.705C812.046 31.015 812.116 31.24 812.256 31.38C812.406 31.51 812.656 31.575 813.006 31.575H814.056V33H812.706C811.936 33 811.346 32.82 810.936 32.46C810.526 32.1 810.321 31.515 810.321 30.705V26.13H809.346V24.735H810.321V22.68H812.046V24.735H814.056V26.13H812.046ZM817.342 25.935C817.592 25.515 817.922 25.19 818.332 24.96C818.752 24.72 819.247 24.6 819.817 24.6V26.37H819.382C818.712 26.37 818.202 26.54 817.852 26.88C817.512 27.22 817.342 27.81 817.342 28.65V33H815.632V24.735H817.342V25.935ZM822.259 23.64C821.949 23.64 821.689 23.535 821.479 23.325C821.269 23.115 821.164 22.855 821.164 22.545C821.164 22.235 821.269 21.975 821.479 21.765C821.689 21.555 821.949 21.45 822.259 21.45C822.559 21.45 822.814 21.555 823.024 21.765C823.234 21.975 823.339 22.235 823.339 22.545C823.339 22.855 823.234 23.115 823.024 23.325C822.814 23.535 822.559 23.64 822.259 23.64ZM823.099 24.735V33H821.389V24.735H823.099ZM827.339 26.13V30.705C827.339 31.015 827.409 31.24 827.549 31.38C827.699 31.51 827.949 31.575 828.299 31.575H829.349V33H827.999C827.229 33 826.639 32.82 826.229 32.46C825.819 32.1 825.614 31.515 825.614 30.705V26.13H824.639V24.735H825.614V22.68H827.339V24.735H829.349V26.13H827.339ZM831.795 23.64C831.485 23.64 831.225 23.535 831.015 23.325C830.805 23.115 830.7 22.855 830.7 22.545C830.7 22.235 830.805 21.975 831.015 21.765C831.225 21.555 831.485 21.45 831.795 21.45C832.095 21.45 832.35 21.555 832.56 21.765C832.77 21.975 832.875 22.235 832.875 22.545C832.875 22.855 832.77 23.115 832.56 23.325C832.35 23.535 832.095 23.64 831.795 23.64ZM832.635 24.735V33H830.925V24.735H832.635ZM838.465 33.135C837.685 33.135 836.98 32.96 836.35 32.61C835.72 32.25 835.225 31.75 834.865 31.11C834.505 30.46 834.325 29.71 834.325 28.86C834.325 28.02 834.51 27.275 834.88 26.625C835.25 25.975 835.755 25.475 836.395 25.125C837.035 24.775 837.75 24.6 838.54 24.6C839.33 24.6 840.045 24.775 840.685 25.125C841.325 25.475 841.83 25.975 842.2 26.625C842.57 27.275 842.755 28.02 842.755 28.86C842.755 29.7 842.565 30.445 842.185 31.095C841.805 31.745 841.285 32.25 840.625 32.61C839.975 32.96 839.255 33.135 838.465 33.135ZM838.465 31.65C838.905 31.65 839.315 31.545 839.695 31.335C840.085 31.125 840.4 30.81 840.64 30.39C840.88 29.97 841 29.46 841 28.86C841 28.26 840.885 27.755 840.655 27.345C840.425 26.925 840.12 26.61 839.74 26.4C839.36 26.19 838.95 26.085 838.51 26.085C838.07 26.085 837.66 26.19 837.28 26.4C836.91 26.61 836.615 26.925 836.395 27.345C836.175 27.755 836.065 28.26 836.065 28.86C836.065 29.75 836.29 30.44 836.74 30.93C837.2 31.41 837.775 31.65 838.465 31.65ZM848.615 24.6C849.265 24.6 849.845 24.735 850.355 25.005C850.875 25.275 851.28 25.675 851.57 26.205C851.86 26.735 852.005 27.375 852.005 28.125V33H850.31V28.38C850.31 27.64 850.125 27.075 849.755 26.685C849.385 26.285 848.88 26.085 848.24 26.085C847.6 26.085 847.09 26.285 846.71 26.685C846.34 27.075 846.155 27.64 846.155 28.38V33H844.445V24.735H846.155V25.68C846.435 25.34 846.79 25.075 847.22 24.885C847.66 24.695 848.125 24.6 848.615 24.6Z" fill="#151515"/>
<path d="M859.61 26.4L861.665 28.455C861.759 28.5481 861.886 28.6004 862.018 28.6004C862.15 28.6004 862.277 28.5481 862.37 28.455L864.37 26.455" stroke="#6A983C" stroke-width="1.5" stroke-linecap="round" stroke-linejoin="bevel"/>
<path d="M914.705 27.645C915.265 27.745 915.74 28.04 916.13 28.53C916.52 29.02 916.715 29.575 916.715 30.195C916.715 30.725 916.575 31.205 916.295 31.635C916.025 32.055 915.63 32.39 915.11 32.64C914.59 32.88 913.985 33 913.295 33H909.125V22.575H913.1C913.81 22.575 914.42 22.695 914.93 22.935C915.44 23.175 915.825 23.5 916.085 23.91C916.345 24.31 916.475 24.76 916.475 25.26C916.475 25.86 916.315 26.36 915.995 26.76C915.675 27.16 915.245 27.455 914.705 27.645ZM910.835 26.955H912.95C913.51 26.955 913.945 26.83 914.255 26.58C914.575 26.32 914.735 25.95 914.735 25.47C914.735 25 914.575 24.635 914.255 24.375C913.945 24.105 913.51 23.97 912.95 23.97H910.835V26.955ZM913.145 31.605C913.725 31.605 914.18 31.465 914.51 31.185C914.84 30.905 915.005 30.515 915.005 30.015C915.005 29.505 914.83 29.1 914.48 28.8C914.13 28.5 913.665 28.35 913.085 28.35H910.835V31.605H913.145ZM918.003 28.83C918.003 28 918.173 27.265 918.513 26.625C918.863 25.985 919.333 25.49 919.923 25.14C920.523 24.78 921.183 24.6 921.903 24.6C922.553 24.6 923.118 24.73 923.598 24.99C924.088 25.24 924.478 25.555 924.768 25.935V24.735H926.493V33H924.768V31.77C924.478 32.16 924.083 32.485 923.583 32.745C923.083 33.005 922.513 33.135 921.873 33.135C921.163 33.135 920.513 32.955 919.923 32.595C919.333 32.225 918.863 31.715 918.513 31.065C918.173 30.405 918.003 29.66 918.003 28.83ZM924.768 28.86C924.768 28.29 924.648 27.795 924.408 27.375C924.178 26.955 923.873 26.635 923.493 26.415C923.113 26.195 922.703 26.085 922.263 26.085C921.823 26.085 921.413 26.195 921.033 26.415C920.653 26.625 920.343 26.94 920.103 27.36C919.873 27.77 919.758 28.26 919.758 28.83C919.758 29.4 919.873 29.9 920.103 30.33C920.343 30.76 920.653 31.09 921.033 31.32C921.423 31.54 921.833 31.65 922.263 31.65C922.703 31.65 923.113 31.54 923.493 31.32C923.873 31.1 924.178 30.78 924.408 30.36C924.648 29.93 924.768 29.43 924.768 28.86ZM930.449 25.965C930.739 25.565 931.134 25.24 931.634 24.99C932.144 24.73 932.709 24.6 933.329 24.6C934.059 24.6 934.719 24.775 935.309 25.125C935.899 25.475 936.364 25.975 936.704 26.625C937.044 27.265 937.214 28 937.214 28.83C937.214 29.66 937.044 30.405 936.704 31.065C936.364 31.715 935.894 32.225 935.294 32.595C934.704 32.955 934.049 33.135 933.329 33.135C932.689 33.135 932.119 33.01 931.619 32.76C931.129 32.51 930.739 32.19 930.449 31.8V33H928.739V21.9H930.449V25.965ZM935.474 28.83C935.474 28.26 935.354 27.77 935.114 27.36C934.884 26.94 934.574 26.625 934.184 26.415C933.804 26.195 933.394 26.085 932.954 26.085C932.524 26.085 932.114 26.195 931.724 26.415C931.344 26.635 931.034 26.955 930.794 27.375C930.564 27.795 930.449 28.29 930.449 28.86C930.449 29.43 930.564 29.93 930.794 30.36C931.034 30.78 931.344 31.1 931.724 31.32C932.114 31.54 932.524 31.65 932.954 31.65C933.394 31.65 933.804 31.54 934.184 31.32C934.574 31.09 934.884 30.76 935.114 30.33C935.354 29.9 935.474 29.4 935.474 28.83ZM946.345 24.735L941.275 36.885H939.505L941.185 32.865L937.93 24.735H939.835L942.16 31.035L944.575 24.735H946.345Z" fill="#151515"/>
<path d="M952.61 26.4L954.665 28.455C954.759 28.5481 954.886 28.6004 955.018 28.6004C955.15 28.6004 955.277 28.5481 955.37 28.455L957.37 26.455" stroke="#6A983C" stroke-width="1.5" stroke-linecap="round" stroke-linejoin="bevel"/>
<path d="M1009.42 25.68C1009.42 26.21 1009.29 26.71 1009.04 27.18C1008.79 27.65 1008.39 28.035 1007.84 28.335C1007.29 28.625 1006.59 28.77 1005.73 28.77H1003.84V33H1002.13V22.575H1005.73C1006.53 22.575 1007.2 22.715 1007.75 22.995C1008.31 23.265 1008.73 23.635 1009 24.105C1009.28 24.575 1009.42 25.1 1009.42 25.68ZM1005.73 27.375C1006.38 27.375 1006.86 27.23 1007.18 26.94C1007.5 26.64 1007.66 26.22 1007.66 25.68C1007.66 24.54 1007.02 23.97 1005.73 23.97H1003.84V27.375H1005.73ZM1015.32 24.6C1015.95 24.6 1016.51 24.735 1017 25.005C1017.5 25.275 1017.89 25.675 1018.17 26.205C1018.46 26.735 1018.61 27.375 1018.61 28.125V33H1016.91V28.38C1016.91 27.64 1016.73 27.075 1016.36 26.685C1015.99 26.285 1015.48 26.085 1014.84 26.085C1014.2 26.085 1013.69 26.285 1013.31 26.685C1012.94 27.075 1012.76 27.64 1012.76 28.38V33H1011.05V21.9H1012.76V25.695C1013.05 25.345 1013.41 25.075 1013.85 24.885C1014.3 24.695 1014.79 24.6 1015.32 24.6ZM1020.22 28.83C1020.22 28 1020.39 27.265 1020.73 26.625C1021.08 25.985 1021.55 25.49 1022.14 25.14C1022.74 24.78 1023.4 24.6 1024.12 24.6C1024.77 24.6 1025.33 24.73 1025.81 24.99C1026.3 25.24 1026.69 25.555 1026.98 25.935V24.735H1028.71V33H1026.98V31.77C1026.69 32.16 1026.3 32.485 1025.8 32.745C1025.3 33.005 1024.73 33.135 1024.09 33.135C1023.38 33.135 1022.73 32.955 1022.14 32.595C1021.55 32.225 1021.08 31.715 1020.73 31.065C1020.39 30.405 1020.22 29.66 1020.22 28.83ZM1026.98 28.86C1026.98 28.29 1026.86 27.795 1026.62 27.375C1026.39 26.955 1026.09 26.635 1025.71 26.415C1025.33 26.195 1024.92 26.085 1024.48 26.085C1024.04 26.085 1023.63 26.195 1023.25 26.415C1022.87 26.625 1022.56 26.94 1022.32 27.36C1022.09 27.77 1021.97 28.26 1021.97 28.83C1021.97 29.4 1022.09 29.9 1022.32 30.33C1022.56 30.76 1022.87 31.09 1023.25 31.32C1023.64 31.54 1024.05 31.65 1024.48 31.65C1024.92 31.65 1025.33 31.54 1025.71 31.32C1026.09 31.1 1026.39 30.78 1026.62 30.36C1026.86 29.93 1026.98 29.43 1026.98 28.86ZM1032.66 25.935C1032.91 25.515 1033.24 25.19 1033.65 24.96C1034.07 24.72 1034.57 24.6 1035.14 24.6V26.37H1034.7C1034.03 26.37 1033.52 26.54 1033.17 26.88C1032.83 27.22 1032.66 27.81 1032.66 28.65V33H1030.95V24.735H1032.66V25.935ZM1046.71 24.6C1047.36 24.6 1047.94 24.735 1048.45 25.005C1048.97 25.275 1049.38 25.675 1049.67 26.205C1049.97 26.735 1050.12 27.375 1050.12 28.125V33H1048.42V28.38C1048.42 27.64 1048.24 27.075 1047.87 26.685C1047.5 26.285 1046.99 26.085 1046.35 26.085C1045.71 26.085 1045.2 26.285 1044.82 26.685C1044.45 27.075 1044.27 27.64 1044.27 28.38V33H1042.57V28.38C1042.57 27.64 1042.39 27.075 1042.02 26.685C1041.65 26.285 1041.14 26.085 1040.5 26.085C1039.86 26.085 1039.35 26.285 1038.97 26.685C1038.6 27.075 1038.42 27.64 1038.42 28.38V33H1036.71V24.735H1038.42V25.68C1038.7 25.34 1039.05 25.075 1039.48 24.885C1039.91 24.695 1040.37 24.6 1040.86 24.6C1041.52 24.6 1042.11 24.74 1042.63 25.02C1043.15 25.3 1043.55 25.705 1043.83 26.235C1044.08 25.735 1044.47 25.34 1045 25.05C1045.53 24.75 1046.1 24.6 1046.71 24.6ZM1051.73 28.83C1051.73 28 1051.9 27.265 1052.24 26.625C1052.59 25.985 1053.06 25.49 1053.65 25.14C1054.25 24.78 1054.91 24.6 1055.63 24.6C1056.28 24.6 1056.84 24.73 1057.32 24.99C1057.81 25.24 1058.2 25.555 1058.49 25.935V24.735H1060.22V33H1058.49V31.77C1058.2 32.16 1057.81 32.485 1057.31 32.745C1056.81 33.005 1056.24 33.135 1055.6 33.135C1054.89 33.135 1054.24 32.955 1053.65 32.595C1053.06 32.225 1052.59 31.715 1052.24 31.065C1051.9 30.405 1051.73 29.66 1051.73 28.83ZM1058.49 28.86C1058.49 28.29 1058.37 27.795 1058.13 27.375C1057.9 26.955 1057.6 26.635 1057.22 26.415C1056.84 26.195 1056.43 26.085 1055.99 26.085C1055.55 26.085 1055.14 26.195 1054.76 26.415C1054.38 26.625 1054.07 26.94 1053.83 27.36C1053.6 27.77 1053.48 28.26 1053.48 28.83C1053.48 29.4 1053.6 29.9 1053.83 30.33C1054.07 30.76 1054.38 31.09 1054.76 31.32C1055.15 31.54 1055.56 31.65 1055.99 31.65C1056.43 31.65 1056.84 31.54 1057.22 31.32C1057.6 31.1 1057.9 30.78 1058.13 30.36C1058.37 29.93 1058.49 29.43 1058.49 28.86ZM1061.89 28.86C1061.89 28.01 1062.06 27.265 1062.4 26.625C1062.75 25.975 1063.23 25.475 1063.84 25.125C1064.45 24.775 1065.15 24.6 1065.94 24.6C1066.94 24.6 1067.77 24.84 1068.42 25.32C1069.08 25.79 1069.52 26.465 1069.75 27.345H1067.91C1067.76 26.935 1067.52 26.615 1067.19 26.385C1066.86 26.155 1066.44 26.04 1065.94 26.04C1065.24 26.04 1064.68 26.29 1064.26 26.79C1063.85 27.28 1063.65 27.97 1063.65 28.86C1063.65 29.75 1063.85 30.445 1064.26 30.945C1064.68 31.445 1065.24 31.695 1065.94 31.695C1066.93 31.695 1067.59 31.26 1067.91 30.39H1069.75C1069.51 31.23 1069.06 31.9 1068.4 32.4C1067.74 32.89 1066.92 33.135 1065.94 33.135C1065.15 33.135 1064.45 32.96 1063.84 32.61C1063.23 32.25 1062.75 31.75 1062.4 31.11C1062.06 30.46 1061.89 29.71 1061.89 28.86ZM1078.9 24.735L1073.83 36.885H1072.06L1073.74 32.865L1070.48 24.735H1072.39L1074.71 31.035L1077.13 24.735H1078.9Z" fill="#151515"/>
<path d="M1085.61 26.4L1087.67 28.455C1087.76 28.5481 1087.89 28.6004 1088.02 28.6004C1088.15 28.6004 1088.28 28.5481 1088.37 28.455L1090.37 26.455" stroke="#6A983C" stroke-width="1.5" stroke-linecap="round" stroke-linejoin="bevel"/>
</svg>
